<svg xmlns="http://www.w3.org/2000/svg" version="1.1" xmlns:xlink="http://www.w3.org/1999/xlink" xmlns:svgjs="http://svgjs.dev/svgjs" width="1500" height="935" viewBox="0 0 1500 935"><g transform="matrix(1,0,0,1,-0.9090909090909918,0.3785425101214628)"><svg viewBox="0 0 396 247" data-background-color="#ffffff" preserveAspectRatio="xMidYMid meet" height="935" width="1500" xmlns="http://www.w3.org/2000/svg" xmlns:xlink="http://www.w3.org/1999/xlink"><g id="tight-bounds" transform="matrix(1,0,0,1,0.2400000000000091,-0.09999999999999432)"><svg viewBox="0 0 395.52 247.2" height="247.2" width="395.52"><g><svg></svg></g><g><svg viewBox="0 0 395.52 247.2" height="247.2" width="395.52"><g transform="matrix(1,0,0,1,75.54432,84.01931047516338)"><svg viewBox="0 0 244.43135999999998 79.16137904967323" height="79.16137904967323" width="244.43135999999998"><g><svg viewBox="0 0 360.91953538192547 116.88716270612966" height="79.16137904967323" width="244.43135999999998"><g transform="matrix(1,0,0,1,0,22.32270289010758)"><svg viewBox="0 0 244.43135999999998 72.2417569259145" height="72.2417569259145" width="244.43135999999998"><g id="textblocktransform"><svg viewBox="0 0 244.43135999999998 72.2417569259145" height="72.2417569259145" width="244.43135999999998" id="textblock"><g><svg viewBox="0 0 244.43135999999998 72.2417569259145" height="72.2417569259145" width="244.43135999999998"><g transform="matrix(1,0,0,1,0,0)"><svg width="244.43135999999998" viewBox="1.5287783887190307 -34.49437663568091 179.59391974809873 53.07903314324274" height="72.2417569259145" data-palette-color="#f5942c"><path d="M4.208-11.636v0c0.509 1.92 1.325 2.8 2.449 2.641v0c0.018 0.381-0.233 0.641-0.756 0.779v0c-1.063 0.282-1.986-0.167-2.767-1.345v0c-0.365-0.545-0.663-1.252-0.894-2.122-0.229-0.863-0.171-1.996 0.175-3.398v0c0.783-3.236 3.079-5.789 6.886-7.661v0c1.311-0.623 2.749-1.143 4.315-1.559 1.572-0.417 2.875-0.928 3.907-1.533 1.031-0.611 1.705-1.166 2.021-1.663v0c0.821-1.301 1.492-2.02 2.014-2.159 0.516-0.137 0.814-0.05 0.897 0.259v0c0.021 0.077 0.041 0.155 0.061 0.232v0c0.013 0.776-0.584 1.672-1.79 2.689v0c-0.729 0.58-1.587 1.114-2.575 1.604v0c-0.761 0.588-1.21 1.769-1.347 3.543-0.145 1.77-0.119 4.27 0.075 7.502v0c1.311-0.492 2.408-0.856 3.291-1.09v0c0.232-0.062 0.374 0.056 0.425 0.353v0c-0.021 0.337-0.249 0.57-0.684 0.698-0.441 0.131-1.433 0.539-2.976 1.224v0c0.38 6.348 0.446 10.886 0.197 13.615v0c-0.608 6.914-3.029 10.932-7.263 12.054v0c-3.035 0.805-5.298-0.081-6.788-2.659v0c-0.538-0.885-0.935-1.807-1.189-2.767v0c-0.482-1.817-0.484-3.762-0.006-5.834v0c0.713-3.162 2.252-5.056 4.617-5.683v0c0.335-0.089 0.637-0.083 0.905 0.018 0.26 0.097 0.47 0.289 0.63 0.578v0c-2.23 0.591-3.766 2.237-4.609 4.937v0c-0.667 2.087-0.746 4.091-0.237 6.011v0c0.743 2.803 2.184 4.256 4.322 4.358v0c0.498 0.006 1.124-0.091 1.878-0.291 0.754-0.2 1.497-0.625 2.228-1.274 0.73-0.656 1.29-1.639 1.68-2.949 0.384-1.309 0.697-2.406 0.938-3.29 0.235-0.883 0.378-2.387 0.428-4.511v0c0.031-2.588 0.007-4.978-0.071-7.171-0.083-2.185-0.124-3.498-0.124-3.94v0c-1.395 0.618-2.463 1.026-3.204 1.222-0.741 0.197-1.249-0.017-1.525-0.64v0c-0.162-0.509-0.096-0.844 0.199-1.005v0c0.17 0.12 0.6 0.089 1.289-0.094 0.683-0.181 1.749-0.533 3.197-1.054v0c-0.024-2.718 0.048-4.955 0.217-6.71 0.177-1.751 0.558-3.148 1.143-4.193v0c-0.412 0.137-1.059 0.322-1.942 0.556v0c-4.981 1.321-8.082 3.712-9.302 7.174v0c-0.596 1.627-0.708 3.143-0.335 4.548zM23.453-8.194v0c0.034 0.129-0.065 0.224-0.297 0.285-0.238 0.063-0.481 0.072-0.727 0.028-0.248-0.051-0.396-0.167-0.444-0.348v0c-0.702-2.648-0.968-4.861-0.798-6.637 0.162-1.781 0.736-2.802 1.722-3.064v0c0.264-0.07 0.51-0.039 0.739 0.094 0.228 0.133 0.384 0.357 0.468 0.672v0c-0.857 1.476-1.241 3.436-1.151 5.882v0c0.048 1.015 0.211 2.044 0.488 3.088zM33.281 2.6v0c-3.242 0.616-5.286-1.303-6.132-5.757v0c-0.476-2.509-0.321-5.137 0.467-7.886v0c1.01-3.469 2.623-5.414 4.837-5.834v0c0.321-0.061 0.601-0.033 0.84 0.084 0.239 0.117 0.429 0.329 0.569 0.635v0c-1.664 0.316-2.849 1.918-3.556 4.808-0.705 2.896-0.813 5.637-0.321 8.224v0c0.596 3.137 1.752 4.543 3.467 4.217v0c0.976-0.185 1.85-1.121 2.622-2.808 0.771-1.694 1.277-3.819 1.518-6.375 0.233-2.562 0.116-5.071-0.351-7.527v0l-0.089-0.471c-0.912-0.37-1.708-0.901-2.389-1.593-0.681-0.692-1.056-1.221-1.126-1.587-0.071-0.373 0.03-0.755 0.301-1.147 0.264-0.396 0.566-0.627 0.907-0.691v0c0.504-0.096 1.077 0.26 1.72 1.068 0.649 0.807 1.173 1.762 1.572 2.867v0c0.923 0.395 1.696 0.533 2.318 0.415 0.616-0.117 1.09-0.316 1.424-0.596v0c0.07 0.367-0.002 0.723-0.214 1.068-0.207 0.338-0.586 0.559-1.137 0.664-0.557 0.106-1.217 0.095-1.98-0.031v0c0.454 2.533 0.554 5.15 0.3 7.852-0.247 2.7-0.869 5.037-1.865 7.011-0.988 1.979-2.222 3.109-3.702 3.39zM49.064-0.149v0c-3.271 0.433-5.205-1.597-5.8-6.091v0c-0.335-2.531-0.033-5.147 0.908-7.847v0c1.203-3.407 2.921-5.259 5.155-5.555v0c0.324-0.043 0.602 0.001 0.835 0.132 0.232 0.131 0.41 0.353 0.532 0.666v0c-1.679 0.222-2.952 1.756-3.819 4.601-0.866 2.852-1.127 5.583-0.781 8.193v0c0.419 3.166 1.495 4.634 3.226 4.405v0c0.985-0.13 1.91-1.016 2.775-2.657 0.864-1.648 1.488-3.741 1.872-6.281 0.376-2.545 0.4-5.056 0.071-7.534v0l-0.063-0.476c-0.89-0.42-1.655-0.995-2.296-1.723-0.641-0.729-0.986-1.278-1.035-1.649-0.05-0.377 0.072-0.753 0.365-1.127 0.286-0.381 0.601-0.594 0.944-0.64v0c0.509-0.067 1.061 0.32 1.657 1.163 0.602 0.842 1.072 1.825 1.41 2.95v0c0.9 0.446 1.663 0.627 2.291 0.544 0.621-0.082 1.106-0.254 1.455-0.516v0c0.049 0.37-0.042 0.722-0.274 1.056-0.226 0.326-0.616 0.525-1.172 0.599-0.562 0.074-1.22 0.027-1.975-0.142v0c0.311 2.555 0.265 5.173-0.14 7.856-0.398 2.682-1.149 4.981-2.254 6.896-1.097 1.921-2.393 2.98-3.887 3.177zM63.358-2.226v0c-2.248 0.156-3.492-1.496-3.731-4.954v0c-0.139-2.009 0.217-4.252 1.067-6.73v0c1.156-3.475 2.833-5.893 5.03-7.255v0c0.954-0.601 1.833-0.929 2.638-0.985 0.805-0.056 1.43 0.041 1.875 0.291 0.445 0.25 0.747 0.516 0.908 0.799v0l0.23 0.436c-0.048 0.458-0.276 0.701-0.681 0.728-0.399 0.028-0.7-0.172-0.904-0.599-0.21-0.433-0.635-0.628-1.273-0.583v0c-1.742 0.121-3.188 1.771-4.338 4.952v0c-1.342 3.588-1.905 6.935-1.69 10.041v0c0.113 1.636 0.506 2.431 1.178 2.384v0c0.532-0.037 1.268-0.753 2.207-2.148 0.939-1.402 1.891-3.091 2.856-5.069v0c1.321-2.725 2.482-5.214 3.482-7.469v0c0.675-4.243 1.596-7.973 2.763-11.188 1.161-3.215 2.196-4.853 3.107-4.916v0c0.452-0.031 0.694 0.179 0.726 0.631v0c-0.542 1.441-1.165 3.395-1.869 5.863-0.704 2.468-1.283 4.817-1.737 7.047-0.447 2.223-0.816 4.865-1.105 7.926-0.282 3.06-0.331 5.93-0.145 8.61v0c0.277 3.99 1.283 5.925 3.019 5.805v0c0.672-0.047 1.277-0.376 1.816-0.988 0.532-0.618 0.901-1.219 1.108-1.8v0c0.113-0.302 0.347-0.398 0.702-0.29v0c0.137 0.044 0.195 0.12 0.176 0.229v0c-0.135 0.364-0.307 0.78-0.515 1.248-0.208 0.475-0.644 1.07-1.31 1.785-0.665 0.721-1.36 1.107-2.085 1.157v0c-3.186 0.221-4.986-2.668-5.402-8.667v0c-0.147-2.115-0.117-4.392 0.088-6.833v0l-0.519 0.036c-3.319 6.879-5.876 10.381-7.672 10.506zM91.724-22.753v0c-0.992-0.043-1.458-0.764-1.398-2.162 0.06-1.392 0.854-2.916 2.38-4.572v0c2.536-2.793 5.962-4.323 10.278-4.59v0l2.213-0.024c4.882 0.211 8.338 2.309 10.368 6.294v0c1.216 2.441 1.756 5.217 1.621 8.328v0c-0.056 1.292-0.221 2.643-0.495 4.052v0c-0.986 4.742-3.013 8.711-6.081 11.909v0c-3.383 3.537-7.212 5.213-11.488 5.028-4.276-0.185-6.942-1.495-7.997-3.93v0c-0.314-0.768-0.452-1.574-0.416-2.42 0.037-0.846 0.305-1.728 0.805-2.648v0c0.954-1.68 2.196-2.487 3.728-2.421v0c0.133 0.006 0.216 0.086 0.25 0.241 0.034 0.148 0.014 0.301-0.06 0.458-0.074 0.157-0.177 0.233-0.31 0.227v0c-0.912-0.039-1.731 0.516-2.454 1.665v0c-0.462 0.814-0.709 1.571-0.739 2.271-0.03 0.699 0.075 1.348 0.316 1.945v0c0.78 1.862 2.792 2.863 6.036 3.004v0c3.677 0.159 7.085-1.575 10.224-5.203v0c2.83-3.261 4.734-7.155 5.711-11.684v0c0.33-1.46 0.524-2.85 0.58-4.169v0c0.127-2.924-0.423-5.42-1.647-7.488v0c-1.628-2.786-4.307-4.26-8.037-4.422v0c-4.669-0.202-8.237 1.218-10.704 4.262v0c-1.248 1.554-1.903 3.031-1.963 4.429v0c-0.024 0.559 0.084 0.844 0.323 0.855v0c-0.183 0.533-0.531 0.788-1.044 0.765zM96.859-7.256v0c0.176-4.076 0.711-8.023 1.603-11.842 0.893-3.818 1.917-6.824 3.073-9.016 1.156-2.192 2.23-3.267 3.222-3.223v0c0.426 0.018 0.63 0.241 0.612 0.667v0c-1.314 2.446-2.517 5.727-3.609 9.843v0c-2.02 7.52-3.103 12.968-3.249 16.345v0c-0.015 0.346-0.209 0.511-0.582 0.495v0c-0.806-0.035-1.162-1.125-1.07-3.269zM119.993-5.47v0c0.443-3.949 1.246-7.427 2.409-10.436 1.155-3.003 2.363-4.434 3.621-4.293v0c0.61 0.068 0.877 0.437 0.802 1.106v0c-0.343 0.666-0.778 1.55-1.304 2.651-0.533 1.101-1.292 3.115-2.278 6.044-0.993 2.928-1.621 5.567-1.885 7.919v0c-0.042 0.371-0.265 0.534-0.668 0.488v0c-0.716-0.08-0.948-1.24-0.697-3.479zM128.042-24.471l-0.564 0.631c-0.557-0.062-0.775-0.63-0.654-1.703v0c0.071-0.636 0.319-1.289 0.743-1.96 0.431-0.669 0.964-0.969 1.6-0.897v0c0.537 0.06 0.77 0.398 0.702 1.015v0c-0.069 0.616-0.678 1.588-1.827 2.914zM130.155-0.722v0c-2.173-0.345-2.987-2.23-2.443-5.654v0c0.324-2.041 1.184-4.2 2.578-6.476v0c1.953-3.2 4.167-5.241 6.643-6.123v0c1.066-0.377 2.023-0.499 2.873-0.364 0.849 0.135 1.488 0.429 1.915 0.882 0.435 0.447 0.689 0.869 0.761 1.265v0l0.155 0.551c-0.15 0.435-0.41 0.623-0.778 0.565v0c-0.428-0.068-0.659-0.206-0.694-0.414-0.034-0.208-0.08-0.391-0.135-0.548-0.056-0.157-0.208-0.388-0.458-0.69-0.257-0.297-0.569-0.475-0.937-0.534v0c-1.725-0.274-3.535 1.028-5.431 3.906v0c-2.162 3.329-3.494 6.57-3.995 9.724v0c-0.253 1.593-0.06 2.441 0.578 2.542v0c0.5 0.08 1.298-0.371 2.392-1.352 1.094-0.98 2.28-2.24 3.557-3.778v0c2.215-2.638 4.036-4.945 5.463-6.919v0c1.205-1.766 2.285-2.573 3.24-2.421v0c0.5 0.08 0.702 0.422 0.607 1.028v0c-0.318 0.469-0.734 1.139-1.251 2.008-0.523 0.869-1.306 2.634-2.35 5.297-1.05 2.655-1.791 5.348-2.226 8.081-0.434 2.732-0.24 4.164 0.583 4.295v0c0.316 0.05 0.631-0.042 0.945-0.275 0.307-0.235 0.611-0.615 0.911-1.142v0c0.125-0.277 0.336-0.392 0.632-0.345v0c0.105 0.017 0.178 0.069 0.218 0.156 0.04 0.087 0.019 0.219-0.063 0.395-0.082 0.176-0.215 0.421-0.4 0.737-0.191 0.307-0.548 0.706-1.072 1.196-0.529 0.483-1.031 0.687-1.504 0.612v0c-1.113-0.177-1.853-1.04-2.221-2.591-0.36-1.556-0.383-3.328-0.067-5.316 0.316-1.988 0.764-3.875 1.345-5.659v0l-0.395-0.063c-4.285 5.219-7.277 7.693-8.976 7.424zM160.201-6.788v0c-0.996-0.221-1.252-1.419-0.769-3.592v0c0.275-1.237 0.766-2.34 1.472-3.31v0c-2.127 1.153-4.758 3.587-7.891 7.303-3.135 3.722-4.845 6.224-5.13 7.506v0c-0.071 0.319-0.318 0.431-0.74 0.338v0c-0.761-0.169-0.912-1.292-0.451-3.368v0c0.867-3.905 2.047-7.354 3.539-10.349 1.492-2.994 2.8-4.367 3.926-4.117v0c0.501 0.111 0.688 0.453 0.56 1.026v0c-2.054 3.559-3.79 7.285-5.207 11.177v0l0.273 0.061c3.21-4.429 6.406-7.735 9.589-9.917v0c1.819-1.242 3.331-1.729 4.535-1.462v0c0.26 0.058 0.458 0.184 0.592 0.378 0.141 0.195 0.186 0.41 0.133 0.644v0c-0.229 0.14-0.515 0.367-0.858 0.68-0.341 0.307-0.89 1.1-1.645 2.38-0.748 1.275-1.302 2.726-1.663 4.353v0c-0.046 0.208-0.134 0.298-0.265 0.269zM157.189 17.343v0c2.32 0.666 4.455 0.09 6.406-1.728v0c1.69-1.609 3.261-3.769 4.713-6.481v0c-4.7-1.239-8.8-0.489-12.3 2.251v0c-0.22 0.186-0.478 0.154-0.773-0.097v0c-0.15-0.154-0.164-0.297-0.044-0.429v0c1.591-1.36 3.551-2.34 5.881-2.94 2.325-0.608 4.922-0.556 7.789 0.157v0c0.652-1.207 1.355-2.639 2.108-4.295 0.76-1.655 1.539-3.244 2.338-4.77v0l-0.346-0.099c-5.07 4.994-8.482 7.239-10.237 6.735v0c-1.961-0.563-2.507-2.354-1.641-5.372 0.869-3.024 2.386-5.88 4.552-8.566 2.172-2.684 3.82-3.99 4.944-3.917v0l0.242 0.027c0.442 0.127 0.582 0.472 0.42 1.037v0c-0.489 0.616-1.112 1.421-1.87 2.417-0.764 0.994-1.874 2.673-3.33 5.037-1.462 2.361-2.399 4.256-2.809 5.685-0.412 1.435-0.311 2.241 0.304 2.418v0c0.724 0.208 2.247-0.711 4.568-2.756v0c3.398-2.991 6.503-6.122 9.316-9.392v0c1.201-1.354 2.227-1.909 3.08-1.665v0c0.545 0.156 0.732 0.529 0.562 1.119v0c-0.753 0.762-1.835 2.282-3.245 4.561-1.404 2.281-2.689 4.614-3.852 6.999-1.159 2.393-2.099 4.252-2.82 5.578v0c1.863 0.903 2.756 2.082 2.677 3.537v0c-0.015 0.245-0.081 0.57-0.196 0.973-0.114 0.397-0.371 0.701-0.772 0.912-0.392 0.206-0.704 0.276-0.935 0.211v0c0.103-0.165 0.207-0.478 0.312-0.941 0.103-0.456 0.129-0.861 0.079-1.215-0.053-0.348-0.226-0.745-0.522-1.191-0.287-0.45-0.719-0.841-1.296-1.173v0c-4.136 6.913-8.656 9.666-13.557 8.257v0c-2.121-0.609-3.313-1.76-3.576-3.451v0c-0.004-0.084 0.002-0.152 0.016-0.204v0c0.046-0.16 0.209-0.221 0.49-0.182 0.28 0.039 0.454 0.182 0.521 0.431v0c0.164 1.192 1.098 2.032 2.803 2.522z" opacity="1" transform="matrix(1,0,0,1,0,0)" fill="#f5942c" class="wordmark-text-0" data-fill-palette-color="primary" id="text-0"></path></svg></g></svg></g></svg></g></svg></g><g transform="matrix(1,0,0,1,267.4765168067507,0)"><svg viewBox="0 0 93.44301857517476 116.88716270612966" height="116.88716270612966" width="93.44301857517476"><g><svg xmlns="http://www.w3.org/2000/svg" xmlns:xlink="http://www.w3.org/1999/xlink" version="1.1" x="0" y="0" viewBox="13.643078328622053 4.223000000000008 72.71392167137796 90.95729272236031" enable-background="new 0 0 100 100" xml:space="preserve" height="116.88716270612966" width="93.44301857517476" class="icon-icon-0" data-fill-palette-color="accent" id="icon-0"><path d="M71.683 64.62c-8.67-2.064-4.317-11.069-4.317-11.069-4.972-7.717 3.509-9.701 3.509-9.701-0.933-7.957 6.605-7.019 6.605-7.019 4.642-5.066 8.877 0 8.877 0l-0.268-0.407c0.946-0.395-12.268-26.439-33.912-18.051-0.161 0.062-0.317 0.114-0.473 0.166-6.812-7.239 5.903-11.72 5.903-11.72l-2.226-2.596c-8.933 2.808-8.942 10.158-8.079 14.47-3.499-0.885-6.551-3.47-15.048 0.609 0 0-23.172 10.033-17.804 43.162 4.821 29.747 44.082 43.555 62.953 22.771 0 0 7.417-7.863 8.952-14.889C74.985 78.656 71.683 64.62 71.683 64.62z" fill="#f5942c" data-fill-palette-color="accent"></path></svg></g></svg></g></svg></g></svg></g><g><path d="M245.816 0c68.262 0 123.6 55.338 123.6 123.6 0 68.262-55.338 123.6-123.6 123.6-53.615 0-99.257-34.138-116.376-81.862h0.876c17.082 47.261 62.346 81.038 115.5 81.038 67.807 0 122.776-54.969 122.776-122.776 0-67.807-54.969-122.776-122.776-122.776-53.153 0-98.418 33.777-115.5 81.038l-0.876 0c17.119-47.725 62.76-81.862 116.376-81.862z" fill="#f5942c" stroke="transparent" data-fill-palette-color="tertiary"></path></g></svg></g><defs></defs></svg><rect width="395.52" height="247.2" fill="none" stroke="none" visibility="hidden"></rect></g></svg></g></svg>