<svg data-background-color="#efefef" preserveAspectRatio="xMinYMid meet"
    xmlns="http://www.w3.org/2000/svg"
    xmlns:xlink="http://www.w3.org/1999/xlink">
    <g id="tight-bounds" transform="matrix(1,0,0,1,0.2400000000000091,0.217313398863908)">
        <svg viewBox="0 0 395.52 145.56537320227218" height="145.56537320227218" width="395.52">
            <g>
                <svg viewBox="0 0 664.158351366807 244.4338043136" height="145.56537320227218" width="395.52">
                    <g transform="matrix(1,0,0,1,268.638351366807,70.94741401144215)">
                        <svg viewBox="0 0 395.52000000000004 102.53897629071571" height="102.53897629071571" width="395.52000000000004">
                            <g id="textblocktransform">
                                <svg viewBox="0 0 395.52000000000004 102.53897629071571" height="102.53897629071571" width="395.52000000000004" id="textblock">
                                    <g>
                                        <svg viewBox="0 0 395.52000000000004 102.53897629071571" height="102.53897629071571" width="395.52000000000004">
                                            <g transform="matrix(1,0,0,1,0,0)">
                                                <svg width="395.52000000000004" viewBox="-0.12 -33.36 180.5 46.8" height="102.53897629071571" data-palette-color="#f5942c">
                                                    <path d="M7-20.48L7-20.48Q7-17.52 8.68-17.32L8.68-17.32Q8.56-16.76 7.76-16.76L7.76-16.76Q6.12-16.76 5.44-18.76L5.44-18.76Q5.12-19.68 5.12-21.02 5.12-22.36 6.16-24.24L6.16-24.24Q8.52-28.6 14.72-29.84L14.72-29.84Q16.84-30.24 19.26-30.24 21.68-30.24 23.4-30.72 25.12-31.2 25.76-31.8L25.76-31.8Q27.44-33.36 28.24-33.36 29.04-33.36 29.04-32.88L29.04-32.88Q29.04-32.76 29.04-32.64L29.04-32.64Q28.76-31.52 26.64-30.52L26.64-30.52Q25.36-29.96 23.76-29.64L23.76-29.64Q22.44-29.08 21.56-26.58 20.68-24.08 19.72-19.36L19.72-19.36Q21.8-19.56 23.16-19.56L23.16-19.56Q23.52-19.56 23.48-19.12L23.48-19.12Q23.32-18.64 22.64-18.62 21.96-18.6 19.48-18.2L19.48-18.2Q17.6-8.92 16.2-5.08L16.2-5.08Q12.68 4.64 6.16 4.64L6.16 4.64Q1.48 4.64 0.32 0.36L0.32 0.36Q-0.12-1.12-0.12-2.6L-0.12-2.6Q-0.12-5.4 1.36-8.2L1.36-8.2Q3.6-12.48 7.24-12.48L7.24-12.48Q7.76-12.48 8.1-12.24 8.44-12 8.56-11.52L8.56-11.52Q5.12-11.52 2.88-7.96L2.88-7.96Q1.12-5.2 1.12-2.24L1.12-2.24Q1.12 2.08 4.16 3.04L4.16 3.04Q4.88 3.24 6.04 3.24 7.2 3.24 8.5 2.58 9.8 1.92 10.86 0.18 11.92-1.56 12.6-2.74 13.28-3.92 14.16-6.96L14.16-6.96Q15.2-10.68 15.92-13.86 16.64-17.04 16.8-17.68L16.8-17.68Q14.56-17.32 13.42-17.32 12.28-17.32 12.12-18.32L12.12-18.32Q12.08-19.12 12.56-19.24L12.56-19.24Q12.76-19 13.82-19 14.88-19 17.16-19.2L17.16-19.2Q18.16-23.12 19.08-25.58 20-28.04 21.24-29.32L21.24-29.32Q20.6-29.28 19.24-29.28L19.24-29.28Q11.56-29.28 8.48-24.76L8.48-24.76Q7-22.64 7-20.48ZM24.6-12.28L24.6-12.28Q24.6-12.08 24.24-12.08 23.88-12.08 23.54-12.24 23.2-12.4 23.2-12.68L23.2-12.68Q23.2-16.76 24.12-19.26 25.04-21.76 26.56-21.76L26.56-21.76Q26.96-21.76 27.24-21.48 27.52-21.2 27.52-20.72L27.52-20.72Q25.72-18.92 24.92-15.36L24.92-15.36Q24.6-13.88 24.6-12.28ZM32.08 0.36L32.08 0.36Q27.16 0.36 27.16-6.4L27.16-6.4Q27.16-10.2 29.08-14L29.08-14Q31.52-18.8 34.88-18.8L34.88-18.8Q35.36-18.8 35.68-18.56 36-18.32 36.12-17.84L36.12-17.84Q33.6-17.84 31.76-13.8 29.92-9.76 29.92-5.84L29.92-5.84Q29.92-1.08 32.52-1.08L32.52-1.08Q34-1.08 35.6-3.34 37.2-5.6 38.26-9.28 39.32-12.96 39.32-16.68L39.32-16.68 39.32-17.16Q38.08-17.96 37.28-19.16 36.48-20.36 36.48-20.92 36.48-21.48 36.98-21.98 37.48-22.48 38-22.48L38-22.48Q38.76-22.48 39.48-21.12 40.2-19.76 40.48-18.04L40.48-18.04Q41.72-17.2 42.66-17.2 43.6-17.2 44.16-17.52L44.16-17.52Q44.16-16.96 43.76-16.52 43.36-16.08 42.52-16.08 41.68-16.08 40.6-16.48L40.6-16.48Q40.56-12.64 39.44-8.76 38.32-4.88 36.32-2.26 34.32 0.36 32.08 0.36ZM48.6 0.36L48.6 0.36Q43.68 0.36 43.68-6.4L43.68-6.4Q43.68-10.2 45.6-14L45.6-14Q48.04-18.8 51.4-18.8L51.4-18.8Q51.88-18.8 52.2-18.56 52.52-18.32 52.64-17.84L52.64-17.84Q50.12-17.84 48.28-13.8 46.44-9.76 46.44-5.84L46.44-5.84Q46.44-1.08 49.04-1.08L49.04-1.08Q50.52-1.08 52.12-3.34 53.72-5.6 54.78-9.28 55.84-12.96 55.84-16.68L55.84-16.68 55.84-17.16Q54.6-17.96 53.8-19.16 53-20.36 53-20.92 53-21.48 53.5-21.98 54-22.48 54.52-22.48L54.52-22.48Q55.28-22.48 56-21.12 56.72-19.76 57-18.04L57-18.04Q58.23-17.2 59.18-17.2 60.12-17.2 60.68-17.52L60.68-17.52Q60.68-16.96 60.28-16.52 59.88-16.08 59.04-16.08 58.2-16.08 57.12-16.48L57.12-16.48Q57.08-12.64 55.96-8.76 54.84-4.88 52.84-2.26 50.84 0.36 48.6 0.36ZM63.59 0L63.59 0Q60.23 0 60.23-5.16L60.23-5.16Q60.23-8.16 61.75-11.76L61.75-11.76Q63.83-16.8 67.23-18.6L67.23-18.6Q68.71-19.4 69.91-19.4 71.11-19.4 71.75-18.98 72.39-18.56 72.59-18.12L72.59-18.12 72.79-17.68Q72.67-17 72.07-17 71.47-17 71.21-17.66 70.95-18.32 69.99-18.32L69.99-18.32Q67.39-18.32 65.35-13.72L65.35-13.72Q62.99-8.52 62.99-3.88L62.99-3.88Q62.99-1.44 63.99-1.44L63.99-1.44Q64.79-1.44 66.33-3.42 67.87-5.4 69.51-8.24L69.51-8.24Q71.75-12.16 73.47-15.4L73.47-15.4Q74.91-21.64 76.97-26.3 79.03-30.96 80.39-30.96L80.39-30.96Q81.07-30.96 81.07-30.28L81.07-30.28Q80.11-28.2 78.81-24.6 77.51-21 76.61-17.74 75.71-14.48 74.97-9.96 74.23-5.44 74.23-1.44L74.23-1.44Q74.23 4.52 76.83 4.52L76.83 4.52Q77.83 4.52 78.69 3.66 79.55 2.8 79.91 1.96L79.91 1.96Q80.11 1.52 80.63 1.72L80.63 1.72Q80.83 1.8 80.79 1.96L80.79 1.96Q80.55 2.48 80.19 3.16 79.83 3.84 78.77 4.84 77.71 5.84 76.63 5.84L76.63 5.84Q71.87 5.84 71.87-3.12L71.87-3.12Q71.87-6.28 72.43-9.88L72.43-9.88 71.91-9.88Q66.27 0 63.59 0ZM92.15-19.12L92.15-19.12Q90.67-19.12 90.67-21.2 90.67-23.28 92.83-25.84L92.83-25.84Q96.43-30.16 102.83-30.84L102.83-30.84 105.03-30.96Q112.31-30.96 115.59-25.16L115.59-25.16Q117.55-21.6 117.55-16.96L117.55-16.96Q117.55-15.04 117.23-12.92L117.23-12.92Q116.07-5.8 111.71-0.84L111.71-0.84Q106.91 4.64 100.53 4.64 94.15 4.64 92.43 1.08L92.43 1.08Q91.91-0.04 91.91-1.3 91.91-2.56 92.59-3.96L92.59-3.96Q93.91-6.52 96.19-6.52L96.19-6.52Q96.39-6.52 96.45-6.3 96.51-6.08 96.41-5.84 96.31-5.6 96.11-5.6L96.11-5.6Q94.75-5.6 93.75-3.84L93.75-3.84Q93.11-2.6 93.11-1.56 93.11-0.52 93.51 0.36L93.51 0.36Q94.79 3.08 99.63 3.08L99.63 3.08Q105.11 3.08 109.55-2.52L109.55-2.52Q113.55-7.56 114.71-14.36L114.71-14.36Q115.11-16.56 115.11-18.52L115.11-18.52Q115.11-22.88 113.15-25.88L113.15-25.88Q110.55-29.92 104.99-29.92L104.99-29.92Q98.03-29.92 94.55-25.24L94.55-25.24Q92.79-22.84 92.79-20.76L92.79-20.76Q92.79-19.92 93.15-19.92L93.15-19.92Q92.91-19.12 92.15-19.12ZM97.91-3.96L97.91-3.96Q97.91-10.04 98.99-15.78 100.07-21.52 101.65-24.86 103.23-28.2 104.71-28.2L104.71-28.2Q105.35-28.2 105.35-27.56L105.35-27.56Q103.55-23.84 102.19-17.64L102.19-17.64Q99.67-6.32 99.67-1.28L99.67-1.28Q99.67-0.76 99.11-0.76L99.11-0.76Q97.91-0.76 97.91-3.96ZM121.43-3.4L121.43-3.4Q121.43-9.32 122.65-13.96 123.87-18.6 125.75-18.6L125.75-18.6Q126.67-18.6 126.67-17.6L126.67-17.6Q126.27-16.56 125.67-14.84 125.07-13.12 124.09-8.62 123.11-4.12 123.11-0.6L123.11-0.6Q123.11-0.04 122.51-0.04L122.51-0.04Q121.43-0.04 121.43-3.4ZM127.27-23.04L126.79-22.36Q125.95-22.36 125.95-23.96L125.95-23.96Q125.95-24.92 126.47-25.98 126.99-27.04 127.95-27.04L127.95-27.04Q128.75-27.04 128.75-26.12L128.75-26.12Q128.75-25.2 127.27-23.04L127.27-23.04ZM132.46 0L132.46 0Q129.18 0 129.18-5.16L129.18-5.16Q129.18-8.24 130.7-11.92L130.7-11.92Q132.82-17.08 136.26-18.96L136.26-18.96Q137.74-19.76 139.02-19.76 140.3-19.76 141.04-19.2 141.78-18.64 141.98-18.08L141.98-18.08 142.22-17.56Q142.1-16.88 141.54-16.88L141.54-16.88Q140.9-16.88 140.8-17.18 140.7-17.48 140.58-17.7 140.46-17.92 140.02-18.3 139.58-18.68 139.02-18.68L139.02-18.68Q136.42-18.68 134.3-14L134.3-14Q131.9-8.6 131.9-3.84L131.9-3.84Q131.9-1.44 132.86-1.44L132.86-1.44Q133.62-1.44 135-3.14 136.38-4.84 137.9-7.4L137.9-7.4Q140.54-11.8 142.18-15.04L142.18-15.04Q143.54-17.92 144.98-17.92L144.98-17.92Q145.74-17.92 145.74-17L145.74-17Q145.38-16.24 144.82-14.84 144.26-13.44 143.34-9.28 142.42-5.12 142.42-1 142.42 3.12 143.66 3.12L143.66 3.12Q144.14 3.12 144.54 2.7 144.94 2.28 145.26 1.44L145.26 1.44Q145.38 1 145.82 1L145.82 1Q145.98 1 146.06 1.12 146.14 1.24 146.06 1.52 145.98 1.8 145.78 2.3 145.58 2.8 144.92 3.64 144.26 4.48 143.54 4.48L143.54 4.48Q141.86 4.48 140.96 2.28 140.06 0.08 140.06-2.92 140.06-5.92 140.5-8.68L140.5-8.68 140.1-8.68Q135.02 0 132.46 0ZM160.94-11.48L160.94-11.48Q159.42-11.48 159.42-14.8L159.42-14.8Q159.42-16.68 160.14-18.32L160.14-18.32Q157.42-15.96 154.06-9.54 150.7-3.12 150.7-1.16L150.7-1.16Q150.7-0.68 150.06-0.68L150.06-0.68Q148.9-0.68 148.9-3.84L148.9-3.84Q148.9-9.8 150.1-14.64 151.3-19.48 153.02-19.48L153.02-19.48Q153.78-19.48 153.78-18.6L153.78-18.6Q151.94-12.76 151.14-6.64L151.14-6.64 151.42-6.64Q154.66-14.12 158.58-18.32L158.58-18.32Q160.82-20.72 162.66-20.72L162.66-20.72Q163.06-20.72 163.32-20.48 163.58-20.24 163.58-19.88L163.58-19.88Q163.3-19.6 162.9-19.04 162.5-18.48 161.82-16.38 161.14-14.28 161.14-11.8L161.14-11.8Q161.14-11.48 160.94-11.48ZM164.62 12.52L164.62 12.52Q168.22 12.52 170.26 9.12L170.26 9.12Q172.02 6.12 172.98 1.64L172.98 1.64Q165.74 1.8 161.86 7.16L161.86 7.16Q161.62 7.52 161.1 7.28L161.1 7.28Q160.82 7.12 160.94 6.88L160.94 6.88Q162.66 4.28 165.74 2.46 168.82 0.64 173.22 0.48L173.22 0.48Q173.66-1.52 174.06-4.2 174.46-6.88 174.98-9.4L174.98-9.4 174.62-9.4Q169.42-0.16 166.7-0.16L166.7-0.16Q163.66-0.16 163.66-4.84 163.66-9.52 165.66-14.26 167.66-19 169.3-19.36L169.3-19.36 169.54-19.4Q170.22-19.4 170.22-18.52L170.22-18.52Q169.78-17.44 169.1-15.7 168.42-13.96 167.3-9.98 166.18-6 166.18-3.78 166.18-1.56 167.14-1.56L167.14-1.56Q168.26-1.56 170.74-5.44L170.74-5.44Q174.38-11.12 177.06-16.96L177.06-16.96Q178.22-19.4 179.54-19.4L179.54-19.4Q180.38-19.4 180.38-18.48L180.38-18.48Q179.62-17.08 178.54-13.24 177.46-9.4 176.78-5.5 176.1-1.6 175.62 0.6L175.62 0.6Q178.66 1.12 179.14 3.24L179.14 3.24Q179.22 3.6 179.22 4.22 179.22 4.84 178.74 5.3 178.26 5.76 177.9 5.76L177.9 5.76Q177.98 5.48 177.94 4.78 177.9 4.08 177.68 3.6 177.46 3.12 176.86 2.6 176.26 2.08 175.3 1.84L175.3 1.84Q172.22 13.44 164.62 13.44L164.62 13.44Q161.34 13.44 160.26 11.12L160.26 11.12Q160.22 11 160.22 10.92L160.22 10.92Q160.22 10.68 160.64 10.62 161.06 10.56 161.26 10.88L161.26 10.88Q161.98 12.52 164.62 12.52Z" opacity="1" transform="matrix(1,0,0,1,0,0)" fill="#f5942c" class="wordmark-text-0" data-fill-palette-color="primary" id="text-0"></path>
                                                </svg>
                                            </g>
                                        </svg>
                                    </g>
                                </svg>
                            </g>
                        </svg>
                    </g>
                    <g>
                        <svg viewBox="0 0 244.43136 244.4338043136" height="244.4338043136" width="244.43136">
                            <g>
                                <svg xmlns="http://www.w3.org/2000/svg"
                                    xmlns:xlink="http://www.w3.org/1999/xlink" version="1.1" x="0" y="0" viewBox="0 0 100 100.001" enable-background="new 0 0 100 100" xml:space="preserve" width="244.43136" height="244.4338043136" class="icon-icon-0" data-fill-palette-color="accent" id="icon-0">
                                    <g fill="#f5942c" data-fill-palette-color="accent">
                                        <path fill-rule="evenodd" clip-rule="evenodd" d="M47.088 0c1.942 0 3.882 0 5.824 0 13.99 1.207 23.935 6.459 31.614 13.977-5.953 4.417-11.925 8.818-16.141 14.975-1.213-3.407-4.772-5.808-9.649-4.492 1.369 2.045 3.221 4.062 4.658 6.489 1.444 2.437 2.709 5.007 3.66 7.821C58.467 30.607 44.26 38.458 44.26 49.75c0 2.333 0.999 4.453 1.664 6.656 1.691 5.6 3.316 13.799 7.155 17.638 3.142 3.141 9.972 5.396 15.307 2.828 5.103 2.948 13.446-0.195 16.307-4.159 1.969-2.729 3.029-6.62 4.326-10.483 1.359-4.049 3.009-8.079 3.328-11.314 0.837-8.468-6.834-15.754-14.144-15.641-3.762 0.059-6.115 1.987-8.486 3.162 0.024-2.299 0.056-4.604-0.332-6.49 8.679-2.136 17.938-3.692 20.3-12.146C95.434 27.03 99.281 36.16 100 48.419c0 1.054 0 2.107 0 3.162-2.577 28.221-19.893 45.796-48.419 48.42-1.054 0-2.108 0-3.162 0-14.567-0.869-25.619-6.484-33.444-14.311C7.138 77.854 1.101 67.265 0 52.912c0-1.941 0-3.883 0-5.824C3.009 20.133 19.932 2.904 47.088 0z" fill="#f5942c" data-fill-palette-color="accent"></path>
                                    </g>
                                </svg>
                            </g>
                        </svg>
                    </g>
                </svg>
            </g>
            <defs></defs>
        </svg>
        <rect width="395.52" height="145.56537320227218" fill="none" stroke="none" visibility="hidden"></rect>
    </g>
</svg>
